STARTFONT 2.1
COMMENT
COMMENT Converted from OpenType font "Pixeled.ttf" by "otf2bdf 3.0".
COMMENT
FONT -FreeType-Pixeled-Medium-R-Normal--6-40-100-100-P-47-ISO10646-1
SIZE 4 100 100
FONTBOUNDINGBOX 10 16 0 -3
STARTPROPERTIES 19
FOUNDRY "FreeType"
FAMILY_NAME "Pixeled"
WEIGHT_NAME "Medium"
SLANT "R"
SETWIDTH_NAME "Normal"
ADD_STYLE_NAME ""
PIXEL_SIZE 6
POINT_SIZE 40
RESOLUTION_X 100
RESOLUTION_Y 100
SPACING "P"
AVERAGE_WIDTH 47
CHARSET_REGISTRY "ISO10646"
CHARSET_ENCODING "1"
FONT_ASCENT 13
FONT_DESCENT 3
COPYRIGHT "Copyright OmegaPC777 2016"
_OTF_FONTFILE "Pixeled.ttf"
_OTF_PSNAME "Pixeled"
ENDPROPERTIES
CHARS 311
STARTCHAR 0020
ENCODING 32
SWIDTH 360 0
DWIDTH 2 0
BBX 0 0 0 0
BITMAP
ENDCHAR
STARTCHAR 0021
ENCODING 33
SWIDTH 360 0
DWIDTH 2 0
BBX 1 7 0 0
BITMAP
80
80
80
80
80
00
80
ENDCHAR
STARTCHAR 0022
ENCODING 34
SWIDTH 720 0
DWIDTH 4 0
BBX 3 2 0 5
BITMAP
A0
A0
ENDCHAR
STARTCHAR 0023
ENCODING 35
SWIDTH 1260 0
DWIDTH 7 0
BBX 6 6 0 0
BITMAP
50
FC
50
50
FC
50
ENDCHAR
STARTCHAR 0024
ENCODING 36
SWIDTH 1080 0
DWIDTH 6 0
BBX 5 8 0 0
BITMAP
20
F8
A0
F8
28
28
F8
20
ENDCHAR
STARTCHAR 0027
ENCODING 39
SWIDTH 360 0
DWIDTH 2 0
BBX 1 2 0 5
BITMAP
80
80
ENDCHAR
STARTCHAR 0028
ENCODING 40
SWIDTH 540 0
DWIDTH 3 0
BBX 2 7 0 0
BITMAP
40
80
80
80
80
80
40
ENDCHAR
STARTCHAR 0029
ENCODING 41
SWIDTH 720 0
DWIDTH 4 0
BBX 2 7 1 0
BITMAP
80
40
40
40
40
40
80
ENDCHAR
STARTCHAR 002B
ENCODING 43
SWIDTH 720 0
DWIDTH 4 0
BBX 3 4 0 2
BITMAP
40
40
E0
40
ENDCHAR
STARTCHAR 002C
ENCODING 44
SWIDTH 360 0
DWIDTH 2 0
BBX 1 2 0 -1
BITMAP
80
80
ENDCHAR
STARTCHAR 002D
ENCODING 45
SWIDTH 720 0
DWIDTH 4 0
BBX 3 1 0 4
BITMAP
E0
ENDCHAR
STARTCHAR 002E
ENCODING 46
SWIDTH 360 0
DWIDTH 2 0
BBX 1 1 0 0
BITMAP
80
ENDCHAR
STARTCHAR 002F
ENCODING 47
SWIDTH 720 0
DWIDTH 4 0
BBX 3 7 0 0
BITMAP
20
20
40
40
00
80
80
ENDCHAR
STARTCHAR 0030
ENCODING 48
SWIDTH 900 0
DWIDTH 5 0
BBX 4 7 0 0
BITMAP
F0
90
90
90
90
90
F0
ENDCHAR
STARTCHAR 0031
ENCODING 49
SWIDTH 360 0
DWIDTH 2 0
BBX 1 7 0 0
BITMAP
80
80
80
80
80
80
80
ENDCHAR
STARTCHAR 0032
ENCODING 50
SWIDTH 900 0
DWIDTH 5 0
BBX 4 7 0 0
BITMAP
E0
10
20
40
00
80
F0
ENDCHAR
STARTCHAR 0033
ENCODING 51
SWIDTH 900 0
DWIDTH 5 0
BBX 4 7 0 0
BITMAP
E0
10
E0
00
10
10
E0
ENDCHAR
STARTCHAR 0034
ENCODING 52
SWIDTH 900 0
DWIDTH 5 0
BBX 4 7 0 0
BITMAP
90
90
F0
10
10
10
10
ENDCHAR
STARTCHAR 0035
ENCODING 53
SWIDTH 900 0
DWIDTH 5 0
BBX 4 7 0 0
BITMAP
F0
80
E0
00
10
10
E0
ENDCHAR
STARTCHAR 0036
ENCODING 54
SWIDTH 900 0
DWIDTH 5 0
BBX 4 7 0 0
BITMAP
70
80
E0
80
90
90
60
ENDCHAR
STARTCHAR 0037
ENCODING 55
SWIDTH 900 0
DWIDTH 5 0
BBX 4 7 0 0
BITMAP
F0
10
10
20
00
40
80
ENDCHAR
STARTCHAR 0038
ENCODING 56
SWIDTH 900 0
DWIDTH 5 0
BBX 4 7 0 0
BITMAP
60
90
60
00
90
90
60
ENDCHAR
STARTCHAR 0039
ENCODING 57
SWIDTH 900 0
DWIDTH 5 0
BBX 4 7 0 0
BITMAP
F0
90
F0
10
10
10
F0
ENDCHAR
STARTCHAR 003A
ENCODING 58
SWIDTH 360 0
DWIDTH 2 0
BBX 1 3 0 1
BITMAP
80
00
80
ENDCHAR
STARTCHAR 003B
ENCODING 59
SWIDTH 360 0
DWIDTH 2 0
BBX 1 5 0 0
BITMAP
80
00
00
80
80
ENDCHAR
STARTCHAR 003D
ENCODING 61
SWIDTH 720 0
DWIDTH 4 0
BBX 3 3 0 3
BITMAP
E0
00
E0
ENDCHAR
STARTCHAR 003F
ENCODING 63
SWIDTH 1080 0
DWIDTH 6 0
BBX 5 7 0 0
BITMAP
70
88
10
20
00
00
20
ENDCHAR
STARTCHAR 0041
ENCODING 65
SWIDTH 900 0
DWIDTH 5 0
BBX 4 7 0 0
BITMAP
60
90
90
F0
90
90
90
ENDCHAR
STARTCHAR 0042
ENCODING 66
SWIDTH 900 0
DWIDTH 5 0
BBX 4 7 0 0
BITMAP
E0
90
E0
80
90
90
E0
ENDCHAR
STARTCHAR 0043
ENCODING 67
SWIDTH 900 0
DWIDTH 5 0
BBX 4 7 0 0
BITMAP
60
90
80
80
80
90
60
ENDCHAR
STARTCHAR 0044
ENCODING 68
SWIDTH 900 0
DWIDTH 5 0
BBX 4 7 0 0
BITMAP
E0
90
90
90
90
90
E0
ENDCHAR
STARTCHAR 0045
ENCODING 69
SWIDTH 900 0
DWIDTH 5 0
BBX 4 7 0 0
BITMAP
F0
80
F0
80
80
80
F0
ENDCHAR
STARTCHAR 0046
ENCODING 70
SWIDTH 900 0
DWIDTH 5 0
BBX 4 7 0 0
BITMAP
F0
80
F0
80
80
80
80
ENDCHAR
STARTCHAR 0047
ENCODING 71
SWIDTH 900 0
DWIDTH 5 0
BBX 4 7 0 0
BITMAP
70
80
B0
90
90
90
60
ENDCHAR
STARTCHAR 0048
ENCODING 72
SWIDTH 900 0
DWIDTH 5 0
BBX 4 7 0 0
BITMAP
90
90
F0
90
90
90
90
ENDCHAR
STARTCHAR 0049
ENCODING 73
SWIDTH 360 0
DWIDTH 2 0
BBX 1 7 0 0
BITMAP
80
80
80
80
80
80
80
ENDCHAR
STARTCHAR 004A
ENCODING 74
SWIDTH 900 0
DWIDTH 5 0
BBX 4 7 0 0
BITMAP
F0
10
10
10
10
90
60
ENDCHAR
STARTCHAR 004B
ENCODING 75
SWIDTH 900 0
DWIDTH 5 0
BBX 4 7 0 0
BITMAP
90
A0
C0
A0
80
90
90
ENDCHAR
STARTCHAR 004C
ENCODING 76
SWIDTH 900 0
DWIDTH 5 0
BBX 4 7 0 0
BITMAP
80
80
80
80
80
80
F0
ENDCHAR
STARTCHAR 004D
ENCODING 77
SWIDTH 1080 0
DWIDTH 6 0
BBX 5 7 0 0
BITMAP
88
D8
A8
88
88
88
88
ENDCHAR
STARTCHAR 004E
ENCODING 78
SWIDTH 900 0
DWIDTH 5 0
BBX 4 7 0 0
BITMAP
90
D0
B0
90
90
90
90
ENDCHAR
STARTCHAR 004F
ENCODING 79
SWIDTH 900 0
DWIDTH 5 0
BBX 4 7 0 0
BITMAP
60
90
90
90
90
90
60
ENDCHAR
STARTCHAR 0050
ENCODING 80
SWIDTH 900 0
DWIDTH 5 0
BBX 4 7 0 0
BITMAP
F0
90
F0
80
80
80
80
ENDCHAR
STARTCHAR 0051
ENCODING 81
SWIDTH 1080 0
DWIDTH 6 0
BBX 5 7 0 0
BITMAP
70
88
88
88
A8
90
68
ENDCHAR
STARTCHAR 0052
ENCODING 82
SWIDTH 900 0
DWIDTH 5 0
BBX 4 7 0 0
BITMAP
E0
90
E0
90
90
90
90
ENDCHAR
STARTCHAR 0053
ENCODING 83
SWIDTH 900 0
DWIDTH 5 0
BBX 4 7 0 0
BITMAP
F0
80
F0
10
10
10
F0
ENDCHAR
STARTCHAR 0054
ENCODING 84
SWIDTH 1260 0
DWIDTH 7 0
BBX 6 7 0 0
BITMAP
FC
20
20
20
20
20
20
ENDCHAR
STARTCHAR 0055
ENCODING 85
SWIDTH 900 0
DWIDTH 5 0
BBX 4 7 0 0
BITMAP
90
90
90
90
90
90
60
ENDCHAR
STARTCHAR 0056
ENCODING 86
SWIDTH 1080 0
DWIDTH 6 0
BBX 5 7 0 0
BITMAP
88
88
88
88
88
50
20
ENDCHAR
STARTCHAR 0057
ENCODING 87
SWIDTH 1080 0
DWIDTH 6 0
BBX 5 7 0 0
BITMAP
88
88
88
88
A8
A8
50
ENDCHAR
STARTCHAR 0058
ENCODING 88
SWIDTH 1080 0
DWIDTH 6 0
BBX 5 7 0 0
BITMAP
88
88
50
20
00
50
88
ENDCHAR
STARTCHAR 0059
ENCODING 89
SWIDTH 1080 0
DWIDTH 6 0
BBX 5 7 0 0
BITMAP
88
88
50
20
20
20
20
ENDCHAR
STARTCHAR 005A
ENCODING 90
SWIDTH 900 0
DWIDTH 5 0
BBX 4 7 0 0
BITMAP
F0
10
20
40
00
80
F0
ENDCHAR
STARTCHAR 005B
ENCODING 91
SWIDTH 720 0
DWIDTH 4 0
BBX 3 7 0 0
BITMAP
E0
80
80
80
80
80
E0
ENDCHAR
STARTCHAR 005C
ENCODING 92
SWIDTH 720 0
DWIDTH 4 0
BBX 3 7 0 0
BITMAP
80
80
40
40
00
20
20
ENDCHAR
STARTCHAR 005D
ENCODING 93
SWIDTH 720 0
DWIDTH 4 0
BBX 3 7 0 0
BITMAP
E0
20
20
20
20
20
E0
ENDCHAR
STARTCHAR 005E
ENCODING 94
SWIDTH 720 0
DWIDTH 4 0
BBX 3 2 0 5
BITMAP
40
A0
ENDCHAR
STARTCHAR 005F
ENCODING 95
SWIDTH 900 0
DWIDTH 5 0
BBX 4 1 0 0
BITMAP
F0
ENDCHAR
STARTCHAR 0060
ENCODING 96
SWIDTH 720 0
DWIDTH 4 0
BBX 2 2 1 5
BITMAP
80
40
ENDCHAR
STARTCHAR 0061
ENCODING 97
SWIDTH 900 0
DWIDTH 5 0
BBX 4 6 0 0
BITMAP
E0
10
F0
90
90
F0
ENDCHAR
STARTCHAR 0062
ENCODING 98
SWIDTH 900 0
DWIDTH 5 0
BBX 4 6 0 0
BITMAP
80
80
F0
90
90
F0
ENDCHAR
STARTCHAR 0063
ENCODING 99
SWIDTH 900 0
DWIDTH 5 0
BBX 4 6 0 0
BITMAP
60
90
80
80
90
60
ENDCHAR
STARTCHAR 0064
ENCODING 100
SWIDTH 900 0
DWIDTH 5 0
BBX 4 6 0 0
BITMAP
10
10
F0
90
90
F0
ENDCHAR
STARTCHAR 0065
ENCODING 101
SWIDTH 900 0
DWIDTH 5 0
BBX 4 6 0 0
BITMAP
F0
90
F0
80
80
F0
ENDCHAR
STARTCHAR 0066
ENCODING 102
SWIDTH 900 0
DWIDTH 5 0
BBX 4 6 0 0
BITMAP
F0
80
F0
80
80
80
ENDCHAR
STARTCHAR 0067
ENCODING 103
SWIDTH 900 0
DWIDTH 5 0
BBX 4 6 0 0
BITMAP
F0
80
B0
90
90
F0
ENDCHAR
STARTCHAR 0068
ENCODING 104
SWIDTH 900 0
DWIDTH 5 0
BBX 4 6 0 0
BITMAP
80
80
F0
90
90
90
ENDCHAR
STARTCHAR 0069
ENCODING 105
SWIDTH 360 0
DWIDTH 2 0
BBX 1 6 0 0
BITMAP
80
00
80
80
80
80
ENDCHAR
STARTCHAR 006A
ENCODING 106
SWIDTH 720 0
DWIDTH 4 0
BBX 3 6 0 0
BITMAP
20
00
20
20
20
E0
ENDCHAR
STARTCHAR 006B
ENCODING 107
SWIDTH 900 0
DWIDTH 5 0
BBX 4 6 0 0
BITMAP
80
80
90
80
E0
90
ENDCHAR
STARTCHAR 006C
ENCODING 108
SWIDTH 360 0
DWIDTH 2 0
BBX 1 6 0 0
BITMAP
80
80
80
80
80
80
ENDCHAR
STARTCHAR 006D
ENCODING 109
SWIDTH 1080 0
DWIDTH 6 0
BBX 5 6 0 0
BITMAP
88
D8
A8
A8
A8
A8
ENDCHAR
STARTCHAR 006E
ENCODING 110
SWIDTH 900 0
DWIDTH 5 0
BBX 4 6 0 0
BITMAP
90
D0
B0
90
90
90
ENDCHAR
STARTCHAR 006F
ENCODING 111
SWIDTH 900 0
DWIDTH 5 0
BBX 4 6 0 0
BITMAP
60
90
90
90
90
60
ENDCHAR
STARTCHAR 0070
ENCODING 112
SWIDTH 900 0
DWIDTH 5 0
BBX 4 6 0 0
BITMAP
F0
90
F0
80
80
80
ENDCHAR
STARTCHAR 0071
ENCODING 113
SWIDTH 900 0
DWIDTH 5 0
BBX 4 6 0 0
BITMAP
F0
90
F0
10
10
10
ENDCHAR
STARTCHAR 0072
ENCODING 114
SWIDTH 900 0
DWIDTH 5 0
BBX 4 6 0 0
BITMAP
F0
80
80
80
80
80
ENDCHAR
STARTCHAR 0073
ENCODING 115
SWIDTH 900 0
DWIDTH 5 0
BBX 4 6 0 0
BITMAP
F0
80
F0
10
10
F0
ENDCHAR
STARTCHAR 0074
ENCODING 116
SWIDTH 900 0
DWIDTH 5 0
BBX 4 6 0 0
BITMAP
80
80
F0
80
80
F0
ENDCHAR
STARTCHAR 0075
ENCODING 117
SWIDTH 900 0
DWIDTH 5 0
BBX 4 6 0 0
BITMAP
90
90
90
90
90
60
ENDCHAR
STARTCHAR 0076
ENCODING 118
SWIDTH 1080 0
DWIDTH 6 0
BBX 5 6 0 0
BITMAP
88
88
88
88
50
20
ENDCHAR
STARTCHAR 0077
ENCODING 119
SWIDTH 1080 0
DWIDTH 6 0
BBX 5 6 0 0
BITMAP
88
88
88
A8
A8
50
ENDCHAR
STARTCHAR 0078
ENCODING 120
SWIDTH 1080 0
DWIDTH 6 0
BBX 5 6 0 0
BITMAP
88
50
20
00
50
88
ENDCHAR
STARTCHAR 0079
ENCODING 121
SWIDTH 900 0
DWIDTH 5 0
BBX 4 6 0 0
BITMAP
90
90
F0
10
10
F0
ENDCHAR
STARTCHAR 007A
ENCODING 122
SWIDTH 900 0
DWIDTH 5 0
BBX 4 6 0 0
BITMAP
F0
20
40
00
80
F0
ENDCHAR
STARTCHAR 007C
ENCODING 124
SWIDTH 360 0
DWIDTH 2 0
BBX 1 7 0 0
BITMAP
80
80
80
80
80
80
80
ENDCHAR
STARTCHAR 007E
ENCODING 126
SWIDTH 900 0
DWIDTH 5 0
BBX 4 2 0 4
BITMAP
50
A0
ENDCHAR
STARTCHAR 00A1
ENCODING 161
SWIDTH 360 0
DWIDTH 2 0
BBX 1 7 0 0
BITMAP
80
00
80
80
80
80
80
ENDCHAR
STARTCHAR 00B5
ENCODING 181
SWIDTH 900 0
DWIDTH 5 0
BBX 4 8 0 -2
BITMAP
90
90
90
90
90
E0
80
80
ENDCHAR
STARTCHAR 00BF
ENCODING 191
SWIDTH 900 0
DWIDTH 5 0
BBX 4 7 0 0
BITMAP
20
00
20
40
00
90
60
ENDCHAR
STARTCHAR 00C0
ENCODING 192
SWIDTH 900 0
DWIDTH 5 0
BBX 4 11 0 0
BITMAP
C0
30
00
00
60
90
90
F0
90
90
90
ENDCHAR
STARTCHAR 00C1
ENCODING 193
SWIDTH 900 0
DWIDTH 5 0
BBX 4 11 0 0
BITMAP
30
C0
00
00
60
90
90
F0
90
90
90
ENDCHAR
STARTCHAR 00C2
ENCODING 194
SWIDTH 900 0
DWIDTH 5 0
BBX 4 11 0 0
BITMAP
60
90
00
00
60
90
90
F0
90
90
90
ENDCHAR
STARTCHAR 00C3
ENCODING 195
SWIDTH 900 0
DWIDTH 5 0
BBX 4 11 0 0
BITMAP
50
A0
00
00
60
90
90
F0
90
90
90
ENDCHAR
STARTCHAR 00C4
ENCODING 196
SWIDTH 900 0
DWIDTH 5 0
BBX 4 10 0 0
BITMAP
90
00
00
60
90
90
F0
90
90
90
ENDCHAR
STARTCHAR 00C5
ENCODING 197
SWIDTH 900 0
DWIDTH 5 0
BBX 4 13 0 0
BITMAP
60
90
90
60
00
00
60
90
90
F0
90
90
90
ENDCHAR
STARTCHAR 00C6
ENCODING 198
SWIDTH 1620 0
DWIDTH 9 0
BBX 8 7 0 0
BITMAP
7F
90
9F
F0
90
90
9F
ENDCHAR
STARTCHAR 00C7
ENCODING 199
SWIDTH 900 0
DWIDTH 5 0
BBX 4 9 0 -2
BITMAP
60
90
80
80
80
90
60
20
40
ENDCHAR
STARTCHAR 00C8
ENCODING 200
SWIDTH 900 0
DWIDTH 5 0
BBX 4 11 0 0
BITMAP
C0
30
00
00
F0
80
F0
80
80
80
F0
ENDCHAR
STARTCHAR 00C9
ENCODING 201
SWIDTH 900 0
DWIDTH 5 0
BBX 4 11 0 0
BITMAP
30
C0
00
00
F0
80
F0
80
80
80
F0
ENDCHAR
STARTCHAR 00CA
ENCODING 202
SWIDTH 900 0
DWIDTH 5 0
BBX 4 11 0 0
BITMAP
60
90
00
00
F0
80
F0
80
80
80
F0
ENDCHAR
STARTCHAR 00CB
ENCODING 203
SWIDTH 900 0
DWIDTH 5 0
BBX 4 10 0 0
BITMAP
90
00
00
F0
80
F0
80
80
80
F0
ENDCHAR
STARTCHAR 00CC
ENCODING 204
SWIDTH 540 0
DWIDTH 3 0
BBX 2 11 0 0
BITMAP
80
40
00
00
40
40
40
40
40
40
40
ENDCHAR
STARTCHAR 00CD
ENCODING 205
SWIDTH 540 0
DWIDTH 3 0
BBX 2 11 0 0
BITMAP
40
80
00
00
80
80
80
80
80
80
80
ENDCHAR
STARTCHAR 00CE
ENCODING 206
SWIDTH 720 0
DWIDTH 4 0
BBX 3 11 0 0
BITMAP
40
A0
00
00
40
40
40
40
40
40
40
ENDCHAR
STARTCHAR 00CF
ENCODING 207
SWIDTH 720 0
DWIDTH 4 0
BBX 3 10 0 0
BITMAP
A0
00
00
40
40
40
40
40
40
40
ENDCHAR
STARTCHAR 00D0
ENCODING 208
SWIDTH 1080 0
DWIDTH 6 0
BBX 5 7 0 0
BITMAP
70
48
E8
48
48
48
70
ENDCHAR
STARTCHAR 00D1
ENCODING 209
SWIDTH 900 0
DWIDTH 5 0
BBX 4 11 0 0
BITMAP
50
A0
00
00
90
D0
B0
90
90
90
90
ENDCHAR
STARTCHAR 00D2
ENCODING 210
SWIDTH 900 0
DWIDTH 5 0
BBX 4 11 0 0
BITMAP
C0
30
00
00
60
90
90
90
90
90
60
ENDCHAR
STARTCHAR 00D3
ENCODING 211
SWIDTH 900 0
DWIDTH 5 0
BBX 4 11 0 0
BITMAP
30
C0
00
00
60
90
90
90
90
90
60
ENDCHAR
STARTCHAR 00DE
ENCODING 222
SWIDTH 900 0
DWIDTH 5 0
BBX 4 7 0 0
BITMAP
80
F0
90
F0
80
80
80
ENDCHAR
STARTCHAR 00DF
ENCODING 223
SWIDTH 900 0
DWIDTH 5 0
BBX 4 7 0 0
BITMAP
60
90
A0
A0
90
90
A0
ENDCHAR
STARTCHAR 00E4
ENCODING 228
SWIDTH 900 0
DWIDTH 5 0
BBX 4 8 0 0
BITMAP
90
00
E0
10
F0
90
90
F0
ENDCHAR
STARTCHAR 00E5
ENCODING 229
SWIDTH 900 0
DWIDTH 5 0
BBX 4 12 0 0
BITMAP
60
90
90
00
60
00
E0
10
F0
90
90
F0
ENDCHAR
STARTCHAR 00E6
ENCODING 230
SWIDTH 1440 0
DWIDTH 8 0
BBX 7 6 0 0
BITMAP
FE
12
FE
90
90
FE
ENDCHAR
STARTCHAR 00E7
ENCODING 231
SWIDTH 900 0
DWIDTH 5 0
BBX 4 8 0 -2
BITMAP
60
90
80
80
90
60
20
40
ENDCHAR
STARTCHAR 00E8
ENCODING 232
SWIDTH 900 0
DWIDTH 5 0
BBX 4 10 0 0
BITMAP
C0
00
30
00
F0
90
F0
80
80
F0
ENDCHAR
STARTCHAR 00E9
ENCODING 233
SWIDTH 900 0
DWIDTH 5 0
BBX 4 10 0 0
BITMAP
30
00
C0
00
F0
90
F0
80
80
F0
ENDCHAR
STARTCHAR 00EC
ENCODING 236
SWIDTH 540 0
DWIDTH 3 0
BBX 2 10 0 0
BITMAP
80
00
40
00
40
40
40
40
40
40
ENDCHAR
STARTCHAR 00ED
ENCODING 237
SWIDTH 540 0
DWIDTH 3 0
BBX 2 10 0 0
BITMAP
40
00
80
00
80
80
80
80
80
80
ENDCHAR
STARTCHAR 00EF
ENCODING 239
SWIDTH 720 0
DWIDTH 4 0
BBX 3 8 0 0
BITMAP
A0
00
40
40
40
40
40
40
ENDCHAR
STARTCHAR 00F0
ENCODING 240
SWIDTH 900 0
DWIDTH 5 0
BBX 4 9 0 0
BITMAP
40
40
F0
50
10
F0
90
90
F0
ENDCHAR
STARTCHAR 00F1
ENCODING 241
SWIDTH 900 0
DWIDTH 5 0
BBX 4 10 0 0
BITMAP
50
00
A0
00
90
D0
B0
90
90
90
ENDCHAR
STARTCHAR 00FE
ENCODING 254
SWIDTH 900 0
DWIDTH 5 0
BBX 4 6 0 0
BITMAP
80
F0
90
90
F0
80
ENDCHAR
STARTCHAR 0112
ENCODING 274
SWIDTH 900 0
DWIDTH 5 0
BBX 4 10 0 0
BITMAP
F0
00
00
F0
80
F0
80
80
80
F0
ENDCHAR
STARTCHAR 0113
ENCODING 275
SWIDTH 900 0
DWIDTH 5 0
BBX 4 8 0 0
BITMAP
F0
00
F0
90
F0
80
80
F0
ENDCHAR
STARTCHAR 0130
ENCODING 304
SWIDTH 360 0
DWIDTH 2 0
BBX 1 10 0 0
BITMAP
80
00
00
80
80
80
80
80
80
80
ENDCHAR
STARTCHAR 0131
ENCODING 305
SWIDTH 360 0
DWIDTH 2 0
BBX 1 4 0 0
BITMAP
80
80
80
80
ENDCHAR
STARTCHAR 0190
ENCODING 400
SWIDTH 900 0
DWIDTH 5 0
BBX 4 6 0 0
BITMAP
70
80
70
00
80
70
ENDCHAR
STARTCHAR 0197
ENCODING 407
SWIDTH 720 0
DWIDTH 4 0
BBX 3 7 0 0
BITMAP
40
40
E0
40
40
40
40
ENDCHAR
STARTCHAR 019A
ENCODING 410
SWIDTH 720 0
DWIDTH 4 0
BBX 3 6 0 0
BITMAP
40
40
E0
40
40
40
ENDCHAR
STARTCHAR 019F
ENCODING 415
SWIDTH 900 0
DWIDTH 5 0
BBX 4 7 0 0
BITMAP
60
90
F0
90
90
90
60
ENDCHAR
STARTCHAR 01A0
ENCODING 416
SWIDTH 1080 0
DWIDTH 6 0
BBX 5 7 0 0
BITMAP
68
90
90
90
90
90
60
ENDCHAR
STARTCHAR 01A1
ENCODING 417
SWIDTH 1080 0
DWIDTH 6 0
BBX 5 6 0 0
BITMAP
68
90
90
90
90
60
ENDCHAR
STARTCHAR 01A4
ENCODING 420
SWIDTH 1440 0
DWIDTH 8 0
BBX 7 7 0 0
BITMAP
FE
A2
3E
20
20
20
20
ENDCHAR
STARTCHAR 01DD
ENCODING 477
SWIDTH 900 0
DWIDTH 5 0
BBX 4 6 0 0
BITMAP
F0
10
F0
90
90
F0
ENDCHAR
STARTCHAR 01F1
ENCODING 497
SWIDTH 1980 0
DWIDTH 11 0
BBX 10 7 0 0
BITMAP
E3C0
9080
9100
9200
9200
9200
E3C0
ENDCHAR
STARTCHAR 01F2
ENCODING 498
SWIDTH 1980 0
DWIDTH 11 0
BBX 10 7 0 0
BITMAP
E000
93C0
9080
9100
9000
9200
E3C0
ENDCHAR
STARTCHAR 01F3
ENCODING 499
SWIDTH 1980 0
DWIDTH 11 0
BBX 10 6 0 0
BITMAP
13C0
1080
F100
9000
9200
F3C0
ENDCHAR
STARTCHAR 023D
ENCODING 573
SWIDTH 1080 0
DWIDTH 6 0
BBX 5 7 0 0
BITMAP
40
40
F0
40
40
40
78
ENDCHAR
STARTCHAR 0391
ENCODING 913
SWIDTH 900 0
DWIDTH 5 0
BBX 4 7 0 0
BITMAP
60
90
90
90
F0
90
90
ENDCHAR
STARTCHAR 0392
ENCODING 914
SWIDTH 900 0
DWIDTH 5 0
BBX 4 7 0 0
BITMAP
E0
90
80
E0
90
90
E0
ENDCHAR
STARTCHAR 0393
ENCODING 915
SWIDTH 900 0
DWIDTH 5 0
BBX 4 7 0 0
BITMAP
F0
80
80
80
80
80
80
ENDCHAR
STARTCHAR 0394
ENCODING 916
SWIDTH 900 0
DWIDTH 5 0
BBX 4 7 0 0
BITMAP
60
90
90
90
90
90
F0
ENDCHAR
STARTCHAR 0395
ENCODING 917
SWIDTH 900 0
DWIDTH 5 0
BBX 4 7 0 0
BITMAP
F0
80
80
F0
80
80
F0
ENDCHAR
STARTCHAR 0396
ENCODING 918
SWIDTH 900 0
DWIDTH 5 0
BBX 4 7 0 0
BITMAP
F0
10
00
20
40
80
F0
ENDCHAR
STARTCHAR 0397
ENCODING 919
SWIDTH 900 0
DWIDTH 5 0
BBX 4 7 0 0
BITMAP
90
90
90
F0
90
90
90
ENDCHAR
STARTCHAR 0398
ENCODING 920
SWIDTH 900 0
DWIDTH 5 0
BBX 4 7 0 0
BITMAP
60
00
90
F0
90
90
60
ENDCHAR
STARTCHAR 0399
ENCODING 921
SWIDTH 360 0
DWIDTH 2 0
BBX 1 7 0 0
BITMAP
80
80
80
80
80
80
80
ENDCHAR
STARTCHAR 039A
ENCODING 922
SWIDTH 900 0
DWIDTH 5 0
BBX 4 7 0 0
BITMAP
90
A0
80
C0
A0
90
90
ENDCHAR
STARTCHAR 039B
ENCODING 923
SWIDTH 1080 0
DWIDTH 6 0
BBX 5 7 0 0
BITMAP
20
00
50
50
88
88
88
ENDCHAR
STARTCHAR 039C
ENCODING 924
SWIDTH 1080 0
DWIDTH 6 0
BBX 5 7 0 0
BITMAP
88
D8
88
A8
88
88
88
ENDCHAR
STARTCHAR 039D
ENCODING 925
SWIDTH 900 0
DWIDTH 5 0
BBX 4 7 0 0
BITMAP
90
D0
90
B0
90
90
90
ENDCHAR
STARTCHAR 039E
ENCODING 926
SWIDTH 1260 0
DWIDTH 7 0
BBX 6 7 0 0
BITMAP
FC
00
00
70
00
00
FC
ENDCHAR
STARTCHAR 039F
ENCODING 927
SWIDTH 900 0
DWIDTH 5 0
BBX 4 7 0 0
BITMAP
60
00
90
90
90
90
60
ENDCHAR
STARTCHAR 03A0
ENCODING 928
SWIDTH 1260 0
DWIDTH 7 0
BBX 6 7 0 0
BITMAP
FC
50
50
50
50
50
50
ENDCHAR
STARTCHAR 03A1
ENCODING 929
SWIDTH 900 0
DWIDTH 5 0
BBX 4 7 0 0
BITMAP
F0
90
90
F0
80
80
80
ENDCHAR
STARTCHAR 0400
ENCODING 1024
SWIDTH 900 0
DWIDTH 5 0
BBX 4 11 0 0
BITMAP
C0
30
00
00
F0
80
F0
80
80
80
F0
ENDCHAR
STARTCHAR 0401
ENCODING 1025
SWIDTH 900 0
DWIDTH 5 0
BBX 4 10 0 0
BITMAP
90
00
00
F0
80
F0
80
80
80
F0
ENDCHAR
STARTCHAR 0402
ENCODING 1026
SWIDTH 1440 0
DWIDTH 8 0
BBX 7 7 0 0
BITMAP
FC
20
3C
20
22
22
24
ENDCHAR
STARTCHAR 0403
ENCODING 1027
SWIDTH 900 0
DWIDTH 5 0
BBX 4 11 0 0
BITMAP
30
C0
00
00
F0
80
80
80
80
80
80
ENDCHAR
STARTCHAR 0404
ENCODING 1028
SWIDTH 900 0
DWIDTH 5 0
BBX 4 7 0 0
BITMAP
70
80
F0
80
80
80
70
ENDCHAR
STARTCHAR 0405
ENCODING 1029
SWIDTH 900 0
DWIDTH 5 0
BBX 4 7 0 0
BITMAP
F0
80
F0
10
10
10
F0
ENDCHAR
STARTCHAR 0406
ENCODING 1030
SWIDTH 360 0
DWIDTH 2 0
BBX 1 7 0 0
BITMAP
80
80
80
80
80
80
80
ENDCHAR
STARTCHAR 0407
ENCODING 1031
SWIDTH 720 0
DWIDTH 4 0
BBX 3 10 0 0
BITMAP
A0
00
00
40
40
40
40
40
40
40
ENDCHAR
STARTCHAR 0408
ENCODING 1032
SWIDTH 900 0
DWIDTH 5 0
BBX 4 7 0 0
BITMAP
10
10
10
10
10
90
60
ENDCHAR
STARTCHAR 0409
ENCODING 1033
SWIDTH 1800 0
DWIDTH 10 0
BBX 9 7 0 0
BITMAP
7800
4800
4800
4F80
4880
4880
8F80
ENDCHAR
STARTCHAR 040A
ENCODING 1034
SWIDTH 1440 0
DWIDTH 8 0
BBX 7 7 0 0
BITMAP
90
90
F0
9E
92
92
9E
ENDCHAR
STARTCHAR 040B
ENCODING 1035
SWIDTH 1440 0
DWIDTH 8 0
BBX 7 7 0 0
BITMAP
FC
20
3C
22
22
22
22
ENDCHAR
STARTCHAR 040C
ENCODING 1036
SWIDTH 900 0
DWIDTH 5 0
BBX 4 11 0 0
BITMAP
30
C0
00
00
90
A0
C0
A0
80
90
90
ENDCHAR
STARTCHAR 040D
ENCODING 1037
SWIDTH 900 0
DWIDTH 5 0
BBX 4 11 0 0
BITMAP
C0
30
00
00
90
B0
D0
90
90
90
90
ENDCHAR
STARTCHAR 040E
ENCODING 1038
SWIDTH 900 0
DWIDTH 5 0
BBX 4 7 0 0
BITMAP
90
90
90
F0
10
10
F0
ENDCHAR
STARTCHAR 040F
ENCODING 1039
SWIDTH 1080 0
DWIDTH 6 0
BBX 5 8 0 -1
BITMAP
88
88
88
88
88
88
F8
20
ENDCHAR
STARTCHAR 0410
ENCODING 1040
SWIDTH 900 0
DWIDTH 5 0
BBX 4 7 0 0
BITMAP
60
90
90
F0
90
90
90
ENDCHAR
STARTCHAR 0411
ENCODING 1041
SWIDTH 900 0
DWIDTH 5 0
BBX 4 7 0 0
BITMAP
F0
80
E0
80
90
90
E0
ENDCHAR
STARTCHAR 0412
ENCODING 1042
SWIDTH 900 0
DWIDTH 5 0
BBX 4 7 0 0
BITMAP
E0
90
E0
80
90
90
E0
ENDCHAR
STARTCHAR 0413
ENCODING 1043
SWIDTH 900 0
DWIDTH 5 0
BBX 4 7 0 0
BITMAP
F0
80
80
80
80
80
80
ENDCHAR
STARTCHAR 0414
ENCODING 1044
SWIDTH 1080 0
DWIDTH 6 0
BBX 5 8 0 -1
BITMAP
70
50
50
50
50
50
F8
88
ENDCHAR
STARTCHAR 0415
ENCODING 1045
SWIDTH 900 0
DWIDTH 5 0
BBX 4 7 0 0
BITMAP
F0
80
F0
80
80
80
F0
ENDCHAR
STARTCHAR 0416
ENCODING 1046
SWIDTH 1080 0
DWIDTH 6 0
BBX 5 7 0 0
BITMAP
A8
A8
70
70
20
A8
A8
ENDCHAR
STARTCHAR 0417
ENCODING 1047
SWIDTH 900 0
DWIDTH 5 0
BBX 4 7 0 0
BITMAP
E0
10
E0
00
10
10
E0
ENDCHAR
STARTCHAR 0418
ENCODING 1048
SWIDTH 900 0
DWIDTH 5 0
BBX 4 7 0 0
BITMAP
90
B0
D0
90
90
90
90
ENDCHAR
STARTCHAR 0419
ENCODING 1049
SWIDTH 900 0
DWIDTH 5 0
BBX 4 11 0 0
BITMAP
90
60
00
00
90
B0
D0
90
90
90
90
ENDCHAR
STARTCHAR 041A
ENCODING 1050
SWIDTH 900 0
DWIDTH 5 0
BBX 4 7 0 0
BITMAP
90
A0
C0
A0
80
90
90
ENDCHAR
STARTCHAR 041B
ENCODING 1051
SWIDTH 1080 0
DWIDTH 6 0
BBX 5 7 0 0
BITMAP
78
48
48
48
48
48
88
ENDCHAR
STARTCHAR 041C
ENCODING 1052
SWIDTH 1080 0
DWIDTH 6 0
BBX 5 7 0 0
BITMAP
88
D8
A8
88
88
88
88
ENDCHAR
STARTCHAR 041D
ENCODING 1053
SWIDTH 900 0
DWIDTH 5 0
BBX 4 7 0 0
BITMAP
90
90
F0
90
90
90
90
ENDCHAR
STARTCHAR 041E
ENCODING 1054
SWIDTH 900 0
DWIDTH 5 0
BBX 4 7 0 0
BITMAP
60
90
90
90
90
90
60
ENDCHAR
STARTCHAR 041F
ENCODING 1055
SWIDTH 900 0
DWIDTH 5 0
BBX 4 7 0 0
BITMAP
F0
90
90
90
90
90
90
ENDCHAR
STARTCHAR 0420
ENCODING 1056
SWIDTH 900 0
DWIDTH 5 0
BBX 4 7 0 0
BITMAP
E0
90
E0
80
80
80
80
ENDCHAR
STARTCHAR 0421
ENCODING 1057
SWIDTH 900 0
DWIDTH 5 0
BBX 4 7 0 0
BITMAP
60
90
80
80
80
90
60
ENDCHAR
STARTCHAR 0422
ENCODING 1058
SWIDTH 1260 0
DWIDTH 7 0
BBX 6 7 0 0
BITMAP
FC
20
20
20
20
20
20
ENDCHAR
STARTCHAR 0423
ENCODING 1059
SWIDTH 900 0
DWIDTH 5 0
BBX 4 7 0 0
BITMAP
90
90
F0
10
10
10
F0
ENDCHAR
STARTCHAR 0424
ENCODING 1060
SWIDTH 1080 0
DWIDTH 6 0
BBX 5 7 0 0
BITMAP
20
70
A8
A8
20
70
20
ENDCHAR
STARTCHAR 0425
ENCODING 1061
SWIDTH 1080 0
DWIDTH 6 0
BBX 5 7 0 0
BITMAP
88
88
50
20
00
50
88
ENDCHAR
STARTCHAR 0426
ENCODING 1062
SWIDTH 1080 0
DWIDTH 6 0
BBX 5 8 0 -1
BITMAP
90
90
90
90
90
90
F8
08
ENDCHAR
STARTCHAR 0427
ENCODING 1063
SWIDTH 900 0
DWIDTH 5 0
BBX 4 7 0 0
BITMAP
90
90
F0
10
10
10
10
ENDCHAR
STARTCHAR 0428
ENCODING 1064
SWIDTH 1080 0
DWIDTH 6 0
BBX 5 7 0 0
BITMAP
A8
A8
A8
A8
A8
A8
F8
ENDCHAR
STARTCHAR 0429
ENCODING 1065
SWIDTH 1440 0
DWIDTH 8 0
BBX 7 8 0 -1
BITMAP
A8
A8
A8
A8
A8
A8
FE
02
ENDCHAR
STARTCHAR 042A
ENCODING 1066
SWIDTH 1080 0
DWIDTH 6 0
BBX 5 7 0 0
BITMAP
C0
40
40
78
48
48
78
ENDCHAR
STARTCHAR 042B
ENCODING 1067
SWIDTH 1440 0
DWIDTH 8 0
BBX 7 7 0 0
BITMAP
82
82
82
F2
92
92
F2
ENDCHAR
STARTCHAR 042C
ENCODING 1068
SWIDTH 900 0
DWIDTH 5 0
BBX 4 7 0 0
BITMAP
80
80
80
F0
90
90
F0
ENDCHAR
STARTCHAR 042D
ENCODING 1069
SWIDTH 900 0
DWIDTH 5 0
BBX 4 7 0 0
BITMAP
E0
10
F0
10
10
10
E0
ENDCHAR
STARTCHAR 042E
ENCODING 1070
SWIDTH 1620 0
DWIDTH 9 0
BBX 8 7 0 0
BITMAP
8C
91
F1
91
91
91
8C
ENDCHAR
STARTCHAR 042F
ENCODING 1071
SWIDTH 900 0
DWIDTH 5 0
BBX 4 7 0 0
BITMAP
70
90
70
90
90
90
90
ENDCHAR
STARTCHAR 0430
ENCODING 1072
SWIDTH 900 0
DWIDTH 5 0
BBX 4 6 0 0
BITMAP
E0
10
F0
90
90
F0
ENDCHAR
STARTCHAR 0431
ENCODING 1073
SWIDTH 900 0
DWIDTH 5 0
BBX 4 7 0 0
BITMAP
10
70
80
E0
80
90
60
ENDCHAR
STARTCHAR 0432
ENCODING 1074
SWIDTH 900 0
DWIDTH 5 0
BBX 4 6 0 0
BITMAP
E0
90
E0
80
90
E0
ENDCHAR
STARTCHAR 0433
ENCODING 1075
SWIDTH 900 0
DWIDTH 5 0
BBX 4 6 0 0
BITMAP
F0
80
80
80
80
80
ENDCHAR
STARTCHAR 0434
ENCODING 1076
SWIDTH 1080 0
DWIDTH 6 0
BBX 5 7 0 -1
BITMAP
70
50
50
50
50
F8
88
ENDCHAR
STARTCHAR 0435
ENCODING 1077
SWIDTH 900 0
DWIDTH 5 0
BBX 4 6 0 0
BITMAP
F0
90
F0
80
80
F0
ENDCHAR
STARTCHAR 0436
ENCODING 1078
SWIDTH 1080 0
DWIDTH 6 0
BBX 5 6 0 0
BITMAP
A8
70
70
20
A8
A8
ENDCHAR
STARTCHAR 0437
ENCODING 1079
SWIDTH 900 0
DWIDTH 5 0
BBX 4 6 0 0
BITMAP
E0
10
E0
00
10
E0
ENDCHAR
STARTCHAR 0438
ENCODING 1080
SWIDTH 900 0
DWIDTH 5 0
BBX 4 6 0 0
BITMAP
90
B0
D0
90
90
90
ENDCHAR
STARTCHAR 0439
ENCODING 1081
SWIDTH 900 0
DWIDTH 5 0
BBX 4 10 0 0
BITMAP
90
00
60
00
90
B0
D0
90
90
90
ENDCHAR
STARTCHAR 043A
ENCODING 1082
SWIDTH 900 0
DWIDTH 5 0
BBX 4 6 0 0
BITMAP
90
A0
C0
80
A0
90
ENDCHAR
STARTCHAR 043B
ENCODING 1083
SWIDTH 1080 0
DWIDTH 6 0
BBX 5 6 0 0
BITMAP
78
48
48
48
48
88
ENDCHAR
STARTCHAR 043C
ENCODING 1084
SWIDTH 1080 0
DWIDTH 6 0
BBX 5 6 0 0
BITMAP
88
D8
A8
88
88
88
ENDCHAR
STARTCHAR 043D
ENCODING 1085
SWIDTH 900 0
DWIDTH 5 0
BBX 4 6 0 0
BITMAP
90
90
F0
90
90
90
ENDCHAR
STARTCHAR 043E
ENCODING 1086
SWIDTH 900 0
DWIDTH 5 0
BBX 4 6 0 0
BITMAP
60
90
90
90
90
60
ENDCHAR
STARTCHAR 043F
ENCODING 1087
SWIDTH 900 0
DWIDTH 5 0
BBX 4 6 0 0
BITMAP
F0
90
90
90
90
90
ENDCHAR
STARTCHAR 0440
ENCODING 1088
SWIDTH 900 0
DWIDTH 5 0
BBX 4 6 0 0
BITMAP
F0
90
F0
80
80
80
ENDCHAR
STARTCHAR 0441
ENCODING 1089
SWIDTH 900 0
DWIDTH 5 0
BBX 4 6 0 0
BITMAP
60
90
80
80
90
60
ENDCHAR
STARTCHAR 0442
ENCODING 1090
SWIDTH 1260 0
DWIDTH 7 0
BBX 6 6 0 0
BITMAP
FC
20
20
20
20
20
ENDCHAR
STARTCHAR 0443
ENCODING 1091
SWIDTH 900 0
DWIDTH 5 0
BBX 4 6 0 0
BITMAP
90
90
F0
10
10
F0
ENDCHAR
STARTCHAR 0444
ENCODING 1092
SWIDTH 1080 0
DWIDTH 6 0
BBX 5 6 0 0
BITMAP
20
70
A8
20
70
20
ENDCHAR
STARTCHAR 0445
ENCODING 1093
SWIDTH 1080 0
DWIDTH 6 0
BBX 5 6 0 0
BITMAP
88
50
20
00
50
88
ENDCHAR
STARTCHAR 0446
ENCODING 1094
SWIDTH 1080 0
DWIDTH 6 0
BBX 5 7 0 -1
BITMAP
90
90
90
90
90
F8
08
ENDCHAR
STARTCHAR 0447
ENCODING 1095
SWIDTH 900 0
DWIDTH 5 0
BBX 4 6 0 0
BITMAP
90
90
F0
10
10
10
ENDCHAR
STARTCHAR 0448
ENCODING 1096
SWIDTH 1080 0
DWIDTH 6 0
BBX 5 6 0 0
BITMAP
A8
A8
A8
A8
A8
F8
ENDCHAR
STARTCHAR 0449
ENCODING 1097
SWIDTH 1440 0
DWIDTH 8 0
BBX 7 7 0 -1
BITMAP
A8
A8
A8
A8
A8
FE
02
ENDCHAR
STARTCHAR 044A
ENCODING 1098
SWIDTH 1080 0
DWIDTH 6 0
BBX 5 6 0 0
BITMAP
C0
40
78
48
48
78
ENDCHAR
STARTCHAR 044B
ENCODING 1099
SWIDTH 1440 0
DWIDTH 8 0
BBX 7 6 0 0
BITMAP
82
82
F2
92
92
F2
ENDCHAR
STARTCHAR 044C
ENCODING 1100
SWIDTH 900 0
DWIDTH 5 0
BBX 4 6 0 0
BITMAP
80
80
F0
90
90
F0
ENDCHAR
STARTCHAR 044D
ENCODING 1101
SWIDTH 900 0
DWIDTH 5 0
BBX 4 6 0 0
BITMAP
E0
10
F0
10
10
E0
ENDCHAR
STARTCHAR 044E
ENCODING 1102
SWIDTH 1620 0
DWIDTH 9 0
BBX 8 6 0 0
BITMAP
8C
91
F1
91
91
8C
ENDCHAR
STARTCHAR 044F
ENCODING 1103
SWIDTH 900 0
DWIDTH 5 0
BBX 4 6 0 0
BITMAP
70
90
70
10
90
90
ENDCHAR
STARTCHAR 0450
ENCODING 1104
SWIDTH 900 0
DWIDTH 5 0
BBX 4 10 0 0
BITMAP
C0
00
30
00
F0
90
F0
80
80
F0
ENDCHAR
STARTCHAR 0451
ENCODING 1105
SWIDTH 900 0
DWIDTH 5 0
BBX 4 8 0 0
BITMAP
90
00
F0
90
F0
80
80
F0
ENDCHAR
STARTCHAR 0452
ENCODING 1106
SWIDTH 900 0
DWIDTH 5 0
BBX 4 9 0 -2
BITMAP
40
E0
40
60
50
50
50
10
20
ENDCHAR
STARTCHAR 0453
ENCODING 1107
SWIDTH 900 0
DWIDTH 5 0
BBX 4 10 0 0
BITMAP
30
00
C0
00
F0
80
80
80
80
80
ENDCHAR
STARTCHAR 0454
ENCODING 1108
SWIDTH 900 0
DWIDTH 5 0
BBX 4 6 0 0
BITMAP
70
80
F0
80
80
70
ENDCHAR
STARTCHAR 0455
ENCODING 1109
SWIDTH 900 0
DWIDTH 5 0
BBX 4 6 0 0
BITMAP
F0
80
F0
10
10
F0
ENDCHAR
STARTCHAR 0456
ENCODING 1110
SWIDTH 360 0
DWIDTH 2 0
BBX 1 7 0 0
BITMAP
80
00
80
80
80
80
80
ENDCHAR
STARTCHAR 0457
ENCODING 1111
SWIDTH 720 0
DWIDTH 4 0
BBX 3 7 0 0
BITMAP
A0
00
40
40
40
40
40
ENDCHAR
STARTCHAR 0458
ENCODING 1112
SWIDTH 900 0
DWIDTH 5 0
BBX 4 7 0 0
BITMAP
10
00
10
10
10
90
60
ENDCHAR
STARTCHAR 0459
ENCODING 1113
SWIDTH 1800 0
DWIDTH 10 0
BBX 9 6 0 0
BITMAP
7800
4800
4F80
4880
4880
8F80
ENDCHAR
STARTCHAR 045A
ENCODING 1114
SWIDTH 1440 0
DWIDTH 8 0
BBX 7 6 0 0
BITMAP
90
90
FE
92
92
9E
ENDCHAR
STARTCHAR 045B
ENCODING 1115
SWIDTH 900 0
DWIDTH 5 0
BBX 4 7 0 0
BITMAP
40
E0
40
60
40
50
50
ENDCHAR
STARTCHAR 045C
ENCODING 1116
SWIDTH 900 0
DWIDTH 5 0
BBX 4 10 0 0
BITMAP
30
00
C0
00
90
A0
C0
80
A0
90
ENDCHAR
STARTCHAR 045D
ENCODING 1117
SWIDTH 900 0
DWIDTH 5 0
BBX 4 10 0 0
BITMAP
C0
00
30
00
90
B0
D0
90
90
90
ENDCHAR
STARTCHAR 045E
ENCODING 1118
SWIDTH 900 0
DWIDTH 5 0
BBX 4 10 0 0
BITMAP
90
00
60
00
90
90
F0
10
10
F0
ENDCHAR
STARTCHAR 045F
ENCODING 1119
SWIDTH 900 0
DWIDTH 5 0
BBX 4 7 0 -1
BITMAP
90
90
90
90
90
F0
20
ENDCHAR
STARTCHAR 0462
ENCODING 1122
SWIDTH 1440 0
DWIDTH 8 0
BBX 7 9 0 0
BITMAP
20
20
FC
20
3E
22
22
22
3E
ENDCHAR
STARTCHAR 0463
ENCODING 1123
SWIDTH 1440 0
DWIDTH 8 0
BBX 7 9 0 0
BITMAP
20
20
20
FC
20
3E
22
22
3E
ENDCHAR
STARTCHAR 0474
ENCODING 1140
SWIDTH 1260 0
DWIDTH 7 0
BBX 6 8 0 0
BITMAP
8C
88
88
88
88
88
50
20
ENDCHAR
STARTCHAR 0475
ENCODING 1141
SWIDTH 1260 0
DWIDTH 7 0
BBX 6 7 0 0
BITMAP
8C
88
88
88
88
50
20
ENDCHAR
STARTCHAR 0476
ENCODING 1142
SWIDTH 1260 0
DWIDTH 7 0
BBX 6 12 0 0
BITMAP
90
48
00
00
8C
88
88
88
88
88
50
20
ENDCHAR
STARTCHAR 0477
ENCODING 1143
SWIDTH 1260 0
DWIDTH 7 0
BBX 6 11 0 0
BITMAP
90
48
00
00
8C
88
88
88
88
50
20
ENDCHAR
STARTCHAR 0478
ENCODING 1144
SWIDTH 1980 0
DWIDTH 11 0
BBX 10 7 0 0
BITMAP
6000
9240
9240
93C0
9040
9040
63C0
ENDCHAR
STARTCHAR 0479
ENCODING 1145
SWIDTH 1980 0
DWIDTH 11 0
BBX 10 6 0 0
BITMAP
6240
9240
93C0
9040
9040
63C0
ENDCHAR
STARTCHAR 048C
ENCODING 1164
SWIDTH 1080 0
DWIDTH 6 0
BBX 5 9 0 0
BITMAP
40
40
E0
40
78
48
48
48
78
ENDCHAR
STARTCHAR 048D
ENCODING 1165
SWIDTH 1080 0
DWIDTH 6 0
BBX 5 9 0 0
BITMAP
40
40
E0
40
40
78
48
48
78
ENDCHAR
STARTCHAR 0490
ENCODING 1168
SWIDTH 900 0
DWIDTH 5 0
BBX 4 8 0 0
BITMAP
10
F0
80
80
80
80
80
80
ENDCHAR
STARTCHAR 0491
ENCODING 1169
SWIDTH 900 0
DWIDTH 5 0
BBX 4 7 0 0
BITMAP
10
F0
80
80
80
80
80
ENDCHAR
STARTCHAR 0492
ENCODING 1170
SWIDTH 1080 0
DWIDTH 6 0
BBX 5 7 0 0
BITMAP
78
40
40
E0
40
40
40
ENDCHAR
STARTCHAR 0493
ENCODING 1171
SWIDTH 1080 0
DWIDTH 6 0
BBX 5 6 0 0
BITMAP
78
40
E0
40
40
40
ENDCHAR
STARTCHAR 04A2
ENCODING 1186
SWIDTH 1080 0
DWIDTH 6 0
BBX 5 8 0 -1
BITMAP
90
90
F0
90
90
90
98
08
ENDCHAR
STARTCHAR 04A3
ENCODING 1187
SWIDTH 1080 0
DWIDTH 6 0
BBX 5 7 0 -1
BITMAP
90
90
F0
90
90
98
08
ENDCHAR
STARTCHAR 04A4
ENCODING 1188
SWIDTH 1080 0
DWIDTH 6 0
BBX 5 7 0 0
BITMAP
98
90
F0
90
90
90
90
ENDCHAR
STARTCHAR 04A5
ENCODING 1189
SWIDTH 1080 0
DWIDTH 6 0
BBX 5 6 0 0
BITMAP
98
90
F0
90
90
90
ENDCHAR
STARTCHAR 04D4
ENCODING 1236
SWIDTH 1620 0
DWIDTH 9 0
BBX 8 7 0 0
BITMAP
7F
90
9F
F0
90
90
9F
ENDCHAR
STARTCHAR 04D5
ENCODING 1237
SWIDTH 1440 0
DWIDTH 8 0
BBX 7 6 0 0
BITMAP
FE
12
FE
90
90
FE
ENDCHAR
STARTCHAR 1E00
ENCODING 7680
SWIDTH 900 0
DWIDTH 5 0
BBX 4 9 0 -2
BITMAP
60
90
90
F0
90
90
90
00
40
ENDCHAR
STARTCHAR 1E01
ENCODING 7681
SWIDTH 900 0
DWIDTH 5 0
BBX 4 8 0 -2
BITMAP
E0
10
F0
90
90
F0
00
40
ENDCHAR
STARTCHAR 1E02
ENCODING 7682
SWIDTH 900 0
DWIDTH 5 0
BBX 4 10 0 0
BITMAP
40
00
00
E0
90
E0
80
90
90
E0
ENDCHAR
STARTCHAR 1E03
ENCODING 7683
SWIDTH 900 0
DWIDTH 5 0
BBX 4 6 0 0
BITMAP
A0
80
F0
90
90
F0
ENDCHAR
STARTCHAR 1E04
ENCODING 7684
SWIDTH 900 0
DWIDTH 5 0
BBX 4 9 0 -2
BITMAP
E0
90
E0
80
90
90
E0
00
40
ENDCHAR
STARTCHAR 1E05
ENCODING 7685
SWIDTH 900 0
DWIDTH 5 0
BBX 4 8 0 -2
BITMAP
80
80
F0
90
90
F0
00
40
ENDCHAR
STARTCHAR 1E06
ENCODING 7686
SWIDTH 900 0
DWIDTH 5 0
BBX 4 9 0 -2
BITMAP
E0
90
E0
80
90
90
E0
00
60
ENDCHAR
STARTCHAR 1E07
ENCODING 7687
SWIDTH 900 0
DWIDTH 5 0
BBX 4 8 0 -2
BITMAP
80
80
F0
90
90
F0
00
60
ENDCHAR
STARTCHAR 1E08
ENCODING 7688
SWIDTH 900 0
DWIDTH 5 0
BBX 4 13 0 -2
BITMAP
30
C0
00
00
60
90
80
80
80
90
60
20
40
ENDCHAR
STARTCHAR 1E09
ENCODING 7689
SWIDTH 900 0
DWIDTH 5 0
BBX 4 12 0 -2
BITMAP
30
00
C0
00
60
90
80
80
90
60
20
40
ENDCHAR
STARTCHAR 1E0A
ENCODING 7690
SWIDTH 900 0
DWIDTH 5 0
BBX 4 10 0 0
BITMAP
40
00
00
E0
90
90
90
90
90
E0
ENDCHAR
STARTCHAR 1E0B
ENCODING 7691
SWIDTH 900 0
DWIDTH 5 0
BBX 4 6 0 0
BITMAP
50
10
F0
90
90
F0
ENDCHAR
STARTCHAR 1E0C
ENCODING 7692
SWIDTH 900 0
DWIDTH 5 0
BBX 4 9 0 -2
BITMAP
E0
90
90
90
90
90
E0
00
40
ENDCHAR
STARTCHAR 1E0D
ENCODING 7693
SWIDTH 900 0
DWIDTH 5 0
BBX 4 8 0 -2
BITMAP
10
10
F0
90
90
F0
00
40
ENDCHAR
STARTCHAR 1E0E
ENCODING 7694
SWIDTH 900 0
DWIDTH 5 0
BBX 4 9 0 -2
BITMAP
E0
90
90
90
90
90
E0
00
60
ENDCHAR
STARTCHAR 1E0F
ENCODING 7695
SWIDTH 900 0
DWIDTH 5 0
BBX 4 8 0 -2
BITMAP
10
10
F0
90
90
F0
00
60
ENDCHAR
STARTCHAR 1E10
ENCODING 7696
SWIDTH 900 0
DWIDTH 5 0
BBX 4 10 0 -3
BITMAP
E0
90
90
90
90
90
E0
00
60
20
ENDCHAR
STARTCHAR 1E11
ENCODING 7697
SWIDTH 900 0
DWIDTH 5 0
BBX 4 9 0 -3
BITMAP
10
10
F0
90
90
F0
00
60
20
ENDCHAR
STARTCHAR 1E12
ENCODING 7698
SWIDTH 900 0
DWIDTH 5 0
BBX 4 10 0 -3
BITMAP
E0
90
90
90
90
90
E0
00
20
50
ENDCHAR
STARTCHAR 1E13
ENCODING 7699
SWIDTH 900 0
DWIDTH 5 0
BBX 4 9 0 -3
BITMAP
10
10
F0
90
90
F0
00
20
50
ENDCHAR
STARTCHAR 1E2C
ENCODING 7724
SWIDTH 900 0
DWIDTH 5 0
BBX 4 10 0 -3
BITMAP
40
40
40
40
40
40
40
00
50
A0
ENDCHAR
STARTCHAR 1E2D
ENCODING 7725
SWIDTH 900 0
DWIDTH 5 0
BBX 4 9 0 -3
BITMAP
40
00
40
40
40
40
00
50
A0
ENDCHAR
STARTCHAR 1E6A
ENCODING 7786
SWIDTH 1260 0
DWIDTH 7 0
BBX 6 10 0 0
BITMAP
20
00
00
FC
20
20
20
20
20
20
ENDCHAR
STARTCHAR 1E6B
ENCODING 7787
SWIDTH 900 0
DWIDTH 5 0
BBX 4 8 0 0
BITMAP
80
00
80
80
F0
80
80
F0
ENDCHAR
STARTCHAR 1E6C
ENCODING 7788
SWIDTH 1260 0
DWIDTH 7 0
BBX 6 9 0 -2
BITMAP
FC
20
20
20
20
20
20
00
20
ENDCHAR
STARTCHAR 1E6D
ENCODING 7789
SWIDTH 900 0
DWIDTH 5 0
BBX 4 8 0 -2
BITMAP
80
80
F0
80
80
F0
00
20
ENDCHAR
STARTCHAR 1E6E
ENCODING 7790
SWIDTH 1260 0
DWIDTH 7 0
BBX 6 9 0 -2
BITMAP
FC
20
20
20
20
20
20
00
70
ENDCHAR
STARTCHAR 1E6F
ENCODING 7791
SWIDTH 900 0
DWIDTH 5 0
BBX 4 8 0 -2
BITMAP
80
80
F0
80
80
F0
00
60
ENDCHAR
STARTCHAR 1E70
ENCODING 7792
SWIDTH 1260 0
DWIDTH 7 0
BBX 6 10 0 -3
BITMAP
FC
20
20
20
20
20
20
00
20
50
ENDCHAR
STARTCHAR 1E71
ENCODING 7793
SWIDTH 900 0
DWIDTH 5 0
BBX 4 9 0 -3
BITMAP
80
80
F0
80
80
F0
00
20
50
ENDCHAR
STARTCHAR 2018
ENCODING 8216
SWIDTH 540 0
DWIDTH 3 0
BBX 2 2 0 5
BITMAP
80
C0
ENDCHAR
STARTCHAR 2019
ENCODING 8217
SWIDTH 540 0
DWIDTH 3 0
BBX 2 2 0 5
BITMAP
C0
40
ENDCHAR
STARTCHAR 201C
ENCODING 8220
SWIDTH 1080 0
DWIDTH 6 0
BBX 5 2 0 5
BITMAP
90
D8
ENDCHAR
STARTCHAR 201D
ENCODING 8221
SWIDTH 1080 0
DWIDTH 6 0
BBX 5 2 0 5
BITMAP
D8
48
ENDCHAR
STARTCHAR 2026
ENCODING 8230
SWIDTH 1080 0
DWIDTH 6 0
BBX 5 1 0 0
BITMAP
A8
ENDCHAR
STARTCHAR 2122
ENCODING 8482
SWIDTH 1800 0
DWIDTH 10 0
BBX 9 3 0 4
BITMAP
F080
5D80
5280
ENDCHAR
STARTCHAR FB01
ENCODING 64257
SWIDTH 1440 0
DWIDTH 8 0
BBX 7 6 0 0
BITMAP
FA
80
FE
82
82
82
ENDCHAR
STARTCHAR FB02
ENCODING 64258
SWIDTH 1440 0
DWIDTH 8 0
BBX 7 6 0 0
BITMAP
FE
82
FA
82
82
82
ENDCHAR
ENDFONT
